<?xml version="1.0" encoding="UTF-8" standalone="no"?>
<!-- Created with Inkscape (http://www.inkscape.org/) -->

<svg
   xmlns:dc="http://purl.org/dc/elements/1.1/"
   xmlns:cc="http://creativecommons.org/ns#"
   xmlns:rdf="http://www.w3.org/1999/02/22-rdf-syntax-ns#"
   xmlns:svg="http://www.w3.org/2000/svg"
   xmlns="http://www.w3.org/2000/svg"
   xmlns:sodipodi="http://sodipodi.sourceforge.net/DTD/sodipodi-0.dtd"
   xmlns:inkscape="http://www.inkscape.org/namespaces/inkscape"
   width="140.35503mm"
   height="140.28819mm"
   viewBox="0 0 497.32096 497.08415"
   id="svg2"
   version="1.1"
   inkscape:version="0.92.1 r15371"
   sodipodi:docname="1ka.svg">
  <defs
     id="defs4" />
  <sodipodi:namedview
     id="base"
     pagecolor="#ffffff"
     bordercolor="#666666"
     borderopacity="1.0"
     inkscape:pageopacity="0.0"
     inkscape:pageshadow="2"
     inkscape:zoom="0.35"
     inkscape:cx="-155.41175"
     inkscape:cy="-173.20348"
     inkscape:document-units="px"
     inkscape:current-layer="layer1"
     showgrid="false"
     fit-margin-top="0"
     fit-margin-left="0"
     fit-margin-right="0"
     fit-margin-bottom="0"
     inkscape:window-width="1918"
     inkscape:window-height="1042"
     inkscape:window-x="0"
     inkscape:window-y="18"
     inkscape:window-maximized="0" />
  <metadata
     id="metadata7">
    <rdf:RDF>
      <cc:Work
         rdf:about="">
        <dc:format>image/svg+xml</dc:format>
        <dc:type
           rdf:resource="http://purl.org/dc/dcmitype/StillImage" />
        <dc:title></dc:title>
      </cc:Work>
    </rdf:RDF>
  </metadata>
  <g
     inkscape:label="Layer 1"
     inkscape:groupmode="layer"
     id="layer1"
     transform="translate(-145.74728,-211.67799)">
    <g
       id="g4668"
       transform="matrix(1.1801891,0,0,1.1801891,178.70628,-69.077947)">
      <path
         style="fill:#e7e7e7;stroke-width:0.9375"
         d="m 243.8664,606.02349 c -0.67324,-0.41608 -8.56536,-15.67993 -17.53804,-33.91966 -8.97268,-18.23971 -16.70193,-33.16313 -17.17612,-33.16313 -0.47419,0 -9.33387,7.72928 -19.68819,17.17619 -12.15258,11.08757 -19.40407,17.06504 -20.45668,16.86263 -1.50065,-0.28857 -1.668,-2.89072 -2.09938,-32.64494 l -0.46875,-32.33138 -8.36031,-0.69598 c -45.34839,-3.77517 -85.461419,-39.78197 -93.284699,-83.73546 -1.478663,-8.30756 -1.332855,-9.67182 1.098137,-10.27479 1.160156,-0.28776 7.382813,-0.40126 13.828125,-0.25224 l 11.71875,0.27097 1.234581,4.21875 c 6.928024,23.67411 18.552326,39.58577 36.734166,50.28274 8.46843,4.98226 21.94811,9.47861 30.91423,10.31193 l 6.56521,0.61017 0.24466,-39.74305 c 0.22708,-36.88845 0.36064,-39.74304 1.85943,-39.74304 0.88812,0 14.0663,12.15715 29.28483,27.0159 15.21853,14.85874 28.09101,26.75573 28.6055,26.43776 2.01313,-1.24418 9.51707,-12.72433 12.62719,-19.31811 4.77149,-10.11607 6.30575,-16.77714 6.83891,-29.69148 0.39697,-9.6156 0.14348,-12.9259 -1.55151,-20.26101 -6.17924,-26.74081 -26.25203,-48.70551 -51.63845,-56.50552 -13.71403,-4.21365 -12.1875,-1.94327 -12.1875,-18.12619 v -14.0826 h 3.16105 c 5.65519,0 21.05889,4.49476 30.13043,8.79199 26.47317,12.54046 46.04746,34.23872 56.08034,62.16552 7.5328,20.96773 7.53301,48.98851 5.4e-4,69.95998 -4.60739,12.82764 -14.27872,29.51977 -20.47786,35.34355 -1.2826,1.20494 -2.332,2.56591 -2.332,3.02439 0,0.45847 10.54688,11.19123 23.4375,23.85056 12.89063,12.65933 23.4375,23.61454 23.4375,24.34492 0,0.73036 -0.52734,1.52467 -1.17187,1.76511 -0.64453,0.24045 -11.61454,1.21284 -24.37779,2.16086 -12.76324,0.94803 -23.42654,1.94432 -23.6962,2.21399 -0.26966,0.26965 6.11105,14.45538 14.17935,31.52384 8.33994,17.64308 14.43248,31.65157 14.12001,32.46589 -0.30231,0.78779 -5.52161,3.80055 -11.59844,6.69504 -15.71233,7.48397 -16.62985,7.84064 -17.99665,6.9959 z M 64.839015,387.88309 c -0.926137,-1.04648 -1.104715,-2.68176 -0.635966,-5.82372 0.35847,-2.40277 0.994713,-6.89992 1.413874,-9.99367 0.419161,-3.09375 2.434561,-9.48999 4.478667,-14.21387 13.668671,-31.58798 42.31262,-55.14113 75.83957,-62.36084 7.03701,-1.51536 9.10866,-1.66779 10.21277,-0.75146 1.09916,0.91222 1.3821,3.78668 1.37071,13.92534 -0.008,7.0267 -0.3526,13.30866 -0.766,13.9599 -0.4134,0.65125 -3.75868,2.01738 -7.43397,3.03585 -27.34279,7.57707 -48.78579,28.97691 -55.195093,55.084 -0.853505,3.47659 -1.963767,6.84842 -2.467247,7.49295 -1.463068,1.87295 -25.122799,1.5602 -26.817315,-0.35448 z"
         id="path4702"
         inkscape:connector-curvature="0" />
      <path
         style="fill:#e1e1e1;stroke-width:0.9375"
         d="m 242.2845,603.39382 c -0.77621,-1.41796 -8.3421,-16.66755 -16.8131,-33.88795 -8.471,-17.22041 -15.60317,-31.51118 -15.84927,-31.75728 -0.36556,-0.36557 -21.14747,18.18959 -36.34423,32.44999 -2.92809,2.74767 -3.70134,3.071 -4.92187,2.05805 -1.25342,-1.04024 -1.44804,-5.45805 -1.44804,-32.86992 v -31.66816 l -5.85937,-0.62161 c -9.78063,-1.03761 -16.65769,-2.4111 -24.56796,-4.90676 -36.578774,-11.54043 -65.81797,-44.45142 -71.773009,-80.78609 -0.93848,-5.72613 -0.913925,-7.05027 0.14316,-7.72002 2.071244,-1.3123 23.652458,-1.02709 25.328979,0.33475 0.793465,0.64454 2.189176,4.02916 3.10158,7.5214 8.00661,30.64534 35.43323,53.9975 67.44528,57.4257 l 6.18134,0.66196 v -38.47004 c 0,-21.15852 0.25607,-39.13736 0.56906,-39.95296 0.31297,-0.81562 1.21218,-1.48293 1.99825,-1.48293 0.78606,0 13.86237,12.33984 29.05847,27.42187 l 27.62928,27.42188 3.48112,-4.02642 c 10.38886,-12.01621 16.62183,-28.20126 17.60898,-45.72493 2.08294,-36.97595 -21.91257,-70.07196 -58.06834,-80.09123 -3.67528,-1.01847 -7.02057,-2.3846 -7.43397,-3.03585 -0.4134,-0.65124 -0.7581,-6.3219 -0.76599,-12.60148 -0.0182,-14.43735 0.15536,-14.68239 9.08699,-12.8327 34.96517,7.24111 64.01459,31.38866 77.58437,64.49257 5.56868,13.58499 7.40485,23.4673 7.41611,39.91379 0.008,12.56501 -0.3222,15.86321 -2.44476,24.375 -4.18682,16.78987 -12.92739,34.00319 -22.83429,44.96894 l -3.52838,3.90549 23.6028,23.61643 c 12.98155,12.98903 23.6028,24.13268 23.6028,24.76366 0,1.63889 -1.72857,1.87549 -26.25,3.59317 -12.11718,0.84879 -22.29843,1.81388 -22.62498,2.14465 -0.32655,0.33077 5.90969,14.31235 13.85829,31.07016 7.94861,16.75781 14.33298,31.3125 14.18748,32.34375 -0.19506,1.38254 -3.58865,3.51785 -12.92079,8.12998 -6.96093,3.44023 -13.41415,6.28789 -14.34048,6.32813 -0.92632,0.0402 -2.3193,-1.08702 -3.09551,-2.50499 z M 64.827059,387.62015 c -2.552841,-1.61671 1.195216,-19.8444 6.52399,-31.72772 9.572255,-21.34638 31.207551,-42.98986 52.664931,-52.68485 8.39247,-3.79194 20.71881,-7.51305 27.09484,-8.17947 l 5.48467,-0.57327 V 308.671 c 0,16.29212 1.32701,14.18063 -11.25,17.90071 -24.966,7.38456 -45.16624,28.66367 -51.955854,54.73077 -0.761695,2.92434 -1.642502,5.73379 -1.95735,6.24323 -0.71275,1.15325 -24.795346,1.22063 -26.605227,0.0744 z"
         id="path4700"
         inkscape:connector-curvature="0" />
      <path
         style="fill:#dbdbdb;stroke-width:0.9375"
         d="m 226.7774,571.69449 c -9.2735,-18.8526 -17.2264,-34.14556 -17.67311,-33.98437 -0.44672,0.16119 -9.24701,7.9923 -19.55619,17.40245 -10.30918,9.41016 -19.40966,17.10938 -20.22329,17.10938 -1.31831,0 -1.47932,-3.45669 -1.47932,-31.76021 0,-24.2899 -0.27563,-31.97774 -1.17187,-32.68509 -0.64453,-0.50868 -4.75781,-1.17978 -9.14063,-1.49133 -37.73739,-2.68249 -74.853641,-31.27397 -88.09164,-67.85896 -2.565065,-7.08891 -5.657709,-19.91711 -5.658196,-23.47004 -1.21e-4,-0.88348 3.336276,-1.17187 13.557454,-1.17187 h 13.557615 l 1.000752,3.98437 c 1.969159,7.83998 5.747665,17.19162 9.494495,23.49846 6.90076,11.61569 20.09438,23.87559 32.23327,29.9521 11.40592,5.7096 31.54137,10.02954 33.36003,7.1572 0.45651,-0.72099 0.83648,-18.74416 0.84437,-40.05149 0.0126,-33.96384 0.18798,-38.70325 1.4225,-38.4375 0.77447,0.1667 13.91498,12.5262 29.20112,27.46553 l 27.79298,27.16242 3.9402,-4.47774 c 5.23736,-5.95186 12.02523,-19.01292 14.69957,-28.2846 3.10326,-10.75876 3.12821,-31.34772 0.0509,-41.99923 -8.26027,-28.59092 -31.1021,-49.89155 -60.45229,-56.37338 l -2.57813,-0.56936 v -13.57589 -13.57589 l 3.04688,0.002 c 1.67578,10e-4 7.00965,1.06402 11.85304,2.36159 38.78885,10.39174 68.89872,42.87297 76.62155,82.65606 2.1145,10.89251 2.1145,29.06747 0,39.95998 -3.03253,15.62162 -9.65072,30.63427 -19.15675,43.45507 -3.10001,4.18098 -6.09557,7.88559 -6.6568,8.23245 -0.56123,0.34685 -1.02042,1.03818 -1.02042,1.53629 0,0.49809 10.54688,11.28742 23.4375,23.97628 12.89063,12.68885 23.4375,23.62792 23.4375,24.30905 0,1.62002 -2.11645,1.90394 -27.65625,3.70986 -11.85937,0.83858 -21.69764,1.65873 -21.86282,1.82255 -0.16516,0.16381 6.26843,14.23802 14.29688,31.27602 8.02846,17.03802 14.59719,31.6531 14.59719,32.47797 0,0.99923 -4.45471,3.6753 -13.34775,8.01837 -7.34127,3.58525 -13.91288,6.51862 -14.6036,6.51862 -0.71912,0 -8.46179,-14.64937 -18.11674,-34.27746 z M 64.815972,387.62776 c -1.116804,-0.71945 -1.075342,-2.25757 0.280182,-10.39411 6.504426,-39.04286 41.599336,-73.63911 82.790126,-81.61379 9.06422,-1.75486 8.80064,-2.18248 8.50001,13.7901 l -0.25955,13.79003 -8.4375,2.45901 c -27.06492,7.88776 -46.75301,27.90816 -54.34819,55.26553 l -1.965239,7.07867 -12.624534,0.23448 c -6.943494,0.12897 -13.214381,-0.14549 -13.935305,-0.60992 z"
         id="path4698"
         inkscape:connector-curvature="0" />
      <path
         style="fill:#cecece;stroke-width:0.9375"
         d="m 243.57677,604.33132 c -0.78888,-0.90234 -8.62693,-16.30078 -17.41789,-34.21875 -8.79095,-17.91796 -16.35334,-32.57812 -16.80529,-32.57812 -0.45196,0 -9.35953,7.80469 -19.79459,17.34375 -10.43507,9.53906 -19.58403,17.34375 -20.33103,17.34375 -1.15512,0 -1.39504,-4.8707 -1.6047,-32.57813 l -0.24653,-32.57812 -8.21106,-0.73564 C 118.62279,502.6978 83.364066,475.535 69.299931,437.09881 c -2.397656,-6.55261 -5.516938,-19.25113 -5.516938,-22.45933 0,-0.47439 5.851956,-0.85503 13.145099,-0.85503 14.957994,0 13.260068,-1.02035 16.380697,9.84375 6.246909,21.74787 24.171781,41.51169 45.576221,50.25198 8.05626,3.28969 19.14859,5.72865 24.3592,5.35604 l 4.13253,-0.29552 0.46875,-39.375 c 0.38937,-32.70625 0.6867,-39.32881 1.75562,-39.10229 0.70778,0.14998 13.47098,12.17342 28.36266,26.71875 14.89169,14.54532 27.65078,26.57159 28.35355,26.72504 1.81235,0.39574 9.43757,-10.16626 13.77451,-19.07961 5.68729,-11.68862 7.61215,-20.3286 7.61215,-34.16814 0,-14.25336 -1.98889,-22.80807 -8.17349,-35.15625 -9.88204,-19.73052 -25.07477,-32.72134 -46.73896,-39.96504 l -10.41479,-3.48231 -0.26095,-12.74868 c -0.22715,-11.09705 -0.0621,-12.82501 1.27461,-13.33792 2.66241,-1.02166 20.53182,4.0283 29.81526,8.42591 15.83001,7.49875 28.3236,17.20712 38.48454,29.90512 8.0003,9.99788 16.65063,27.1701 19.96846,39.64042 2.27298,8.54325 2.49428,10.91374 2.49428,26.71875 0,15.82815 -0.21872,18.16299 -2.50294,26.71875 -3.2612,12.21519 -11.99759,29.77537 -19.35629,38.90625 -3.11661,3.86719 -5.68904,7.45312 -5.7165,7.96875 -0.0275,0.51562 10.61777,11.3565 23.65605,24.09082 16.72901,16.33902 23.41332,23.44685 22.71161,24.15062 -0.5469,0.54852 -9.61721,1.62748 -20.15625,2.39769 -24.5773,1.79616 -29.00563,2.29114 -29.00563,3.24207 0,0.42764 6.53907,14.60559 14.53125,31.50656 7.99219,16.90096 14.53125,31.28846 14.53125,31.97219 0,0.88431 -25.94961,14.3588 -27.65263,14.3588 -0.1,0 -0.82721,-0.73828 -1.61609,-1.64063 z M 64.813217,387.6116 c -1.122344,-0.7106 -1.097285,-2.12218 0.172164,-9.69833 5.471093,-32.65175 31.933031,-64.04303 64.608789,-76.64414 8.95733,-3.45431 23.52874,-7.00108 25.56025,-6.22152 1.20085,0.46081 1.44107,2.72664 1.44107,13.59262 0,9.29019 -0.33696,13.31811 -1.17187,14.00811 -0.64453,0.53267 -3.84262,1.65938 -7.10686,2.5038 -24.91266,6.44467 -45.58959,26.2509 -53.676204,51.4159 -1.689652,5.25808 -3.469232,10.0875 -3.954621,10.73203 -1.04277,1.38466 -23.746015,1.65802 -25.872718,0.31153 z"
         id="path4696"
         inkscape:connector-curvature="0" />
      <path
         style="fill:#c3c3c3;stroke-width:0.9375"
         d="m 226.80627,570.8157 c -9.25761,-18.82031 -16.98611,-34.21875 -17.17444,-34.21875 -0.18834,0 -9.12703,8.01993 -19.86379,17.82207 -10.73676,9.80214 -19.95617,17.67737 -20.48758,17.5005 -0.62606,-0.20836 -1.13124,-11.68083 -1.43497,-32.5877 l -0.46875,-32.26612 -5.15625,-0.7508 c -22.12823,-3.22204 -31.93435,-6.16248 -44.5753,-13.36624 C 91.266295,477.916 73.895006,455.11908 66.169647,425.3956 c -1.31266,-5.05049 -2.386654,-9.74101 -2.386654,-10.42338 0,-0.98136 2.673318,-1.18617 12.790066,-0.97985 14.620565,0.29816 13.046381,-0.75621 16.749773,11.21876 3.795973,12.27433 9.501458,21.29191 20.055758,31.69832 4.96805,4.89844 11.43866,10.32148 14.37912,12.0512 10.72022,6.30615 23.8858,10.49126 33.85311,10.76132 l 5.76592,0.15623 0.24455,-39.60938 c 0.22501,-36.44396 0.37099,-39.60937 1.82671,-39.60937 0.87018,0 13.88922,12.24205 28.93119,27.20456 17.30808,17.21665 27.82376,27.01406 28.64204,26.68569 4.49844,-1.80518 15.87801,-22.05029 19.22502,-34.20275 2.34735,-8.52289 2.35875,-30.78067 0.0202,-39.375 -7.40402,-27.20982 -29.70785,-49.93499 -55.72798,-56.7807 -3.45768,-0.90969 -6.82617,-2.06792 -7.48554,-2.57383 -0.88731,-0.6808 -1.13095,-3.99051 -0.9375,-12.73578 l 0.26136,-11.81594 5.31446,0.17666 c 6.57569,0.21859 20.10908,4.66154 30.23591,9.92631 43.92778,22.83733 66.06379,74.35818 52.54918,122.3065 -3.20496,11.37083 -11.37014,27.3029 -18.81818,36.7184 l -6.23172,7.87787 23.5533,23.40556 c 20.78001,20.64965 25.49175,26.00882 22.85018,25.98992 -2.5607,-0.0183 -42.54227,2.9613 -45,3.35363 -1.67578,0.2675 -3.04688,0.91146 -3.04688,1.43101 0,0.51955 6.55581,14.85739 14.56845,31.86185 8.01266,17.00446 14.29548,31.35888 13.96184,31.89872 -0.90597,1.46589 -24.73057,13.02232 -26.84665,13.02232 -1.47195,0 -5.10928,-6.67002 -18.66036,-34.21875 z M 64.850811,387.63483 c -1.053562,-0.66752 -1.083036,-2.01296 -0.169117,-7.72002 2.099153,-13.10835 7.910481,-27.30455 16.261394,-39.72411 8.886189,-13.21563 26.991242,-28.75203 41.509332,-35.62018 12.41254,-5.87207 30.59548,-10.68823 32.95604,-8.72913 1.66748,1.38388 1.68113,25.46009 0.0152,26.73592 -0.64453,0.4936 -4.11699,1.67317 -7.71656,2.62127 -25.20705,6.63935 -47.822871,29.24458 -54.392611,54.36712 -0.943879,3.60937 -2.119996,7.08984 -2.613592,7.73437 -1.049441,1.37035 -23.751536,1.66434 -25.850046,0.33476 z"
         id="path4694"
         inkscape:connector-curvature="0" />
      <path
         style="fill:#bababa;stroke-width:0.9375"
         d="m 226.98424,570.8157 c -9.24177,-18.82031 -17.09629,-34.21875 -17.45449,-34.21875 -0.3582,0 -7.66885,6.41456 -16.24589,14.25459 -23.71865,21.68054 -23.66961,21.63916 -24.57585,20.73293 -0.46058,-0.46059 -0.94854,-15.37667 -1.08435,-33.14685 l -0.24692,-32.30942 -7.96875,-0.6691 c -16.63374,-1.39667 -35.84408,-8.21127 -49.73002,-17.64102 -7.11263,-4.83011 -19.005307,-16.03487 -24.290555,-22.88554 -9.557389,-12.38816 -17.560963,-30.56108 -21.08113,-47.86684 l -0.572091,-2.8125 12.913874,0.31135 c 7.102631,0.17124 13.030087,0.42756 13.172125,0.5696 0.142038,0.14204 1.117961,3.36062 2.168718,7.1524 5.306977,19.15087 19.032679,36.87317 36.907159,47.65363 7.89246,4.76011 22.82079,9.56922 31.56503,10.16856 l 7.36383,0.50472 0.24466,-39.66469 c 0.19314,-31.31312 0.49842,-39.74925 1.4499,-40.06626 0.66289,-0.22086 13.56573,11.87298 28.67299,26.87519 15.10725,15.00221 27.95325,27.27675 28.54666,27.27675 1.95126,0 9.57029,-10.62271 13.78446,-19.21875 21.99538,-44.86611 -1.82696,-98.1175 -50.13848,-112.07734 l -7.53963,-2.17861 v -12.4814 c 0,-14.58846 -1.14307,-13.66164 12.56168,-10.18515 39.07759,9.91285 70.05843,43.26951 76.99979,82.90468 1.76269,10.06495 1.76269,27.65819 0,37.72314 -2.94521,16.81713 -10.63423,33.70648 -21.35155,46.89983 -2.24278,2.76092 -4.42919,5.59509 -4.8587,6.29816 -0.56221,0.92028 5.87545,7.93854 22.98517,25.05813 15.35804,15.36691 23.44394,24.10123 22.85548,24.68831 -0.50084,0.49967 -11.34918,1.64217 -24.10742,2.53889 -12.75824,0.89672 -23.62137,1.89278 -24.14026,2.21348 -0.55124,0.34068 5.09733,13.35514 13.58743,31.3058 7.99198,16.89749 14.53088,31.55026 14.53088,32.56172 0,1.44077 -2.76617,3.15027 -12.77344,7.89406 -7.02539,3.33028 -13.35252,6.05505 -14.06027,6.05505 -0.76035,0 -8.16144,-13.99973 -18.09004,-34.21875 z M 64.837857,387.62682 c -1.086665,-0.68832 -1.041787,-2.16099 0.286039,-9.38629 6.579499,-35.80198 34.603602,-66.98742 70.836974,-78.82794 10.72731,-3.50552 18.59339,-4.58794 19.77532,-2.72122 1.03557,1.63557 1.10426,23.38071 0.079,24.9959 -0.4134,0.65125 -3.69277,1.99911 -7.28749,2.99526 -9.3554,2.59251 -14.78849,5.10482 -23.32847,10.78727 -15.96461,10.62276 -27.831795,27.28319 -32.683378,45.88444 -0.794509,3.04619 -1.994575,5.88739 -2.666811,6.31377 -1.630175,1.03396 -23.370296,0.99816 -25.011134,-0.0412 z"
         id="path4692"
         inkscape:connector-curvature="0" />
      <path
         style="fill:#b6b6b6;stroke-width:0.9375"
         d="m 227.28966,570.79915 c -9.92125,-20.2322 -17.2599,-34.13266 -17.94184,-33.98437 -0.63466,0.13801 -9.579,7.95014 -19.87632,17.36029 -16.41269,14.99866 -20.00317,17.89878 -20.89198,16.875 -0.11192,-0.1289 -0.42833,-14.78906 -0.70313,-32.57812 l -0.49965,-32.34375 -7.96875,-0.6691 c -16.63374,-1.39667 -35.84408,-8.21127 -49.73002,-17.64102 -7.11263,-4.83011 -19.005307,-16.03487 -24.290555,-22.88554 -9.557389,-12.38816 -17.560963,-30.56108 -21.08113,-47.86684 l -0.572091,-2.8125 12.913874,0.31135 c 7.102631,0.17124 13.030087,0.42756 13.172125,0.5696 0.142038,0.14204 1.117961,3.36062 2.168718,7.1524 5.306977,19.15087 19.032679,36.87317 36.907159,47.65363 7.89717,4.76295 22.82042,9.56919 31.5753,10.16926 l 7.37412,0.50544 0.0143,-38.80585 c 0.008,-23.05083 0.37827,-39.37676 0.91071,-40.21208 0.96176,-1.50887 2.09208,-0.46639 39.53154,36.45944 12.24904,12.08101 17.92792,17.07908 18.95688,16.68422 2.43034,-0.93261 9.99974,-11.85984 13.83877,-19.97773 21.09945,-44.61626 -2.92678,-97.21658 -50.71262,-111.02452 l -7.53963,-2.17861 v -12.4814 c 0,-14.58846 -1.14307,-13.66164 12.56168,-10.18515 39.07759,9.91285 70.05843,43.26951 76.99979,82.90468 1.76269,10.06495 1.76269,27.65819 0,37.72314 -3.01213,17.19926 -10.4198,33.28668 -21.93291,47.6323 -2.64883,3.3005 -4.81606,6.41409 -4.81606,6.91909 0,0.505 10.54688,11.23336 23.4375,23.84081 12.89063,12.60747 23.4375,23.2764 23.4375,23.70877 0,1.35368 -2.67229,1.69573 -25.78125,3.30005 -12.375,0.85912 -22.84984,1.88807 -23.27744,2.28654 -0.42759,0.39848 5.79506,14.6372 13.82813,31.64161 8.03306,17.00441 14.60556,31.52901 14.60556,32.27687 0,1.27387 -24.41751,13.95525 -26.80583,13.92175 -0.56352,-0.008 -8.57915,-15.42024 -17.8125,-34.24966 z M 64.31469,383.08132 c 2.328503,-16.03675 10.976843,-35.59048 21.605956,-48.85065 11.037263,-13.76935 26.832184,-25.59475 42.602064,-31.89549 8.12788,-3.24743 20.70944,-6.67573 24.49935,-6.67573 h 2.63593 v 13.47978 13.47977 l -6.27808,1.577 c -21.16724,5.31704 -41.2632,21.5549 -51.121763,41.3072 -2.246199,4.50041 -5.559013,14.04209 -6.754011,19.45312 l -0.569366,2.57813 H 77.301438 63.668106 Z"
         id="path4690"
         inkscape:connector-curvature="0" />
      <path
         style="fill:#adadad;stroke-width:0.9375"
         d="m 227.28966,570.79915 c -9.92125,-20.2322 -17.2599,-34.13266 -17.94184,-33.98437 -0.63466,0.13801 -9.579,7.95014 -19.87632,17.36029 -10.29732,9.41016 -19.11964,17.10938 -19.60515,17.10938 -0.48551,0 -1.13883,-0.66731 -1.4518,-1.48293 -0.31299,-0.8156 -0.56906,-15.28592 -0.56906,-32.15625 0,-22.60702 -0.29584,-30.96917 -1.125,-31.79832 -0.61875,-0.61875 -3.10339,-1.125 -5.52143,-1.125 -2.41804,0 -7.75903,-0.63788 -11.86885,-1.41749 -39.12647,-7.42217 -71.478395,-37.54412 -81.352244,-75.74475 -1.225281,-4.74046 -2.297042,-7.9862 -2.38169,-7.21276 -0.08465,0.77344 -0.482785,-0.28125 -0.884747,-2.34375 -0.692754,-3.55458 -0.211992,-6.02493 0.684187,-3.51563 0.30498,0.85395 3.645981,1.17188 12.314728,1.17188 h 11.896201 l 1.23572,5.39062 c 1.640849,7.15795 7.539163,19.65156 12.676415,26.85077 8.94895,12.54083 24.08036,23.86778 38.54453,28.85337 8.47716,2.92195 21.64754,5.2382 24.20486,4.25686 1.44253,-0.55355 1.57855,-3.91266 1.59168,-39.30658 0.008,-21.63646 0.39091,-39.29641 0.86833,-40.05095 0.66195,-1.04618 5.45448,3.10151 21.31377,18.446 11.25289,10.88761 23.82489,23.20199 27.9378,27.36529 4.11291,4.16329 8.19794,7.56962 9.07786,7.56962 3.8866,0 14.34253,-16.66598 18.82145,-30 2.8831,-8.58319 2.99161,-9.46735 2.99161,-24.375 0,-14.9055 -0.10889,-15.79304 -2.99036,-24.375 -3.97378,-11.8352 -10.1024,-22.02417 -18.59277,-30.91094 -10.81238,-11.3172 -21.17031,-17.6733 -36.00455,-22.09407 l -7.03125,-2.09539 -0.26321,-11.93557 -0.26321,-11.93557 4.48196,0.67054 c 11.87224,1.77618 28.72862,8.94529 41.11894,17.48809 9.02772,6.22437 20.58063,18.30358 27.13646,28.37266 24.48667,37.60901 22.01222,87.39892 -6.07357,122.2106 -2.60212,3.22525 -4.73112,6.55522 -4.73112,7.39994 0,0.84471 10.54688,11.85103 23.4375,24.45848 12.89063,12.60747 23.4375,23.2764 23.4375,23.70877 0,1.35368 -2.67229,1.69573 -25.78125,3.30005 -12.375,0.85912 -22.84984,1.88807 -23.27744,2.28654 -0.42759,0.39848 5.79506,14.6372 13.82813,31.64161 8.03306,17.00441 14.60556,31.52901 14.60556,32.27687 0,1.27387 -24.41751,13.95525 -26.80583,13.92175 -0.56352,-0.008 -8.57915,-15.42024 -17.8125,-34.24966 z M 64.31469,383.08132 c 2.328503,-16.03675 10.976843,-35.59048 21.605956,-48.85065 11.037263,-13.76935 26.832184,-25.59475 42.602064,-31.89549 8.12788,-3.24743 20.70944,-6.67573 24.49935,-6.67573 h 2.63593 v 13.47978 13.47977 l -6.27808,1.577 c -21.16724,5.31704 -41.2632,21.5549 -51.121763,41.3072 -2.246199,4.50041 -5.559013,14.04209 -6.754011,19.45312 l -0.569366,2.57813 H 77.301438 63.668106 Z"
         id="path4688"
         inkscape:connector-curvature="0" />
      <path
         style="fill:#a7a7a7;stroke-width:0.9375"
         d="m 243.43428,602.92507 c -0.73119,-1.16015 -8.40325,-16.55859 -17.04904,-34.21875 -8.64578,-17.66015 -16.24154,-32.10937 -16.87947,-32.10937 -0.63793,0 -9.70459,7.80469 -20.14813,17.34375 -10.44354,9.53906 -19.3452,17.34375 -19.78146,17.34375 -0.43625,0 -0.79319,-14.27837 -0.79319,-31.7297 0,-36.15331 0.29208,-34.8328 -7.70463,-34.8328 -2.35166,0 -7.63833,-0.63788 -11.74815,-1.41749 -39.12647,-7.42217 -71.478395,-37.54412 -81.352244,-75.74475 -1.225281,-4.74046 -2.297042,-7.9862 -2.38169,-7.21276 -0.08465,0.77344 -0.482785,-0.28125 -0.884747,-2.34375 -0.692754,-3.55458 -0.211992,-6.02493 0.684187,-3.51563 0.30498,0.85395 3.645981,1.17188 12.314728,1.17188 h 11.896201 l 1.23572,5.39062 c 1.640849,7.15795 7.539163,19.65156 12.676415,26.85077 8.94895,12.54083 24.08036,23.86778 38.54453,28.85337 9.7151,3.34865 22.37705,5.36311 24.66014,3.92333 1.44796,-0.91313 1.61276,-4.50859 1.83545,-40.0419 0.18239,-29.10233 0.52459,-39.03869 1.34446,-39.03869 0.60489,0 13.20805,12.02344 28.00702,26.71875 17.66675,17.54302 27.56656,26.71875 28.82715,26.71875 4.19874,0 14.47377,-16.10378 19.14153,-30 2.8831,-8.58319 2.99161,-9.46735 2.99161,-24.375 0,-14.9055 -0.10889,-15.79304 -2.99036,-24.375 -3.97378,-11.8352 -10.1024,-22.02417 -18.59277,-30.91094 -10.81238,-11.3172 -21.17031,-17.6733 -36.00455,-22.09407 l -7.03125,-2.09539 -0.26321,-11.93557 -0.26321,-11.93557 4.48196,0.67054 c 11.87224,1.77618 28.72862,8.94529 41.11894,17.48809 9.02772,6.22437 20.58063,18.30358 27.13646,28.37266 24.48667,37.60901 22.01222,87.39892 -6.07357,122.2106 -2.60212,3.22525 -4.73112,6.63304 -4.73112,7.57286 0,0.98789 9.68973,11.30488 22.96875,24.45563 12.63282,12.51078 22.96875,23.10448 22.96875,23.54157 0,0.43709 -1.79297,1.02576 -3.98437,1.30818 -3.50387,0.45155 -41.44075,3.35141 -43.84424,3.35141 -0.50676,0 -0.92139,0.56962 -0.92139,1.26581 0,0.6962 6.55203,15.12379 14.56006,32.06131 8.00803,16.93753 14.34926,31.34485 14.0916,32.01626 -0.35827,0.93366 -24.94172,13.40662 -26.42361,13.40662 -0.1704,0 -0.90807,-0.94922 -1.63926,-2.10938 z M 63.803282,386.38832 c 0.0516,-3.04588 3.80534,-17.79372 6.031708,-23.69762 9.730295,-25.80287 32.17889,-49.0424 57.5932,-59.62241 8.33264,-3.46888 24.89804,-7.8087 26.88946,-7.04452 1.15678,0.44389 1.34917,2.70048 1.13255,13.2834 l -0.26096,12.74868 -10.36241,3.46479 c -25.13461,8.40406 -42.77842,26.04785 -51.182713,51.18264 l -3.464868,10.36242 -13.198128,0.26012 c -10.228668,0.20159 -13.193563,-0.009 -13.177839,-0.9375 z"
         id="path4686"
         inkscape:connector-curvature="0" />
      <path
         style="fill:#9c9c9c;stroke-width:0.9375"
         d="m 243.43428,602.92507 c -0.73119,-1.16015 -8.40325,-16.55859 -17.04904,-34.21875 -8.64578,-17.66015 -16.24154,-32.10937 -16.87947,-32.10937 -0.63793,0 -9.70459,7.80469 -20.14813,17.34375 -10.44354,9.53906 -19.33448,17.34375 -19.75763,17.34375 -0.42315,0 -0.98861,-14.66016 -1.25658,-32.57813 -0.93286,-62.37546 -0.0636,-137.10937 1.59482,-137.10937 0.61336,0 12.73326,11.54636 26.9331,25.65858 14.19984,14.11222 27.50539,26.72068 29.56789,28.01881 2.0625,1.29812 7.125,6.02433 11.25,10.50271 4.125,4.47837 17.94141,18.70917 30.70313,31.624 12.76172,12.91483 23.20312,23.82733 23.20312,24.25001 0,0.42267 -1.79297,0.99956 -3.98437,1.28198 -3.50387,0.45155 -41.44075,3.35141 -43.84424,3.35141 -0.50676,0 -0.92139,0.56962 -0.92139,1.26581 0,0.6962 6.55203,15.12379 14.56006,32.06131 8.00803,16.93753 14.34926,31.34485 14.0916,32.01626 -0.35827,0.93366 -24.94172,13.40662 -26.42361,13.40662 -0.1704,0 -0.90807,-0.94922 -1.63926,-2.10938 z M 63.803282,386.38832 c 0.0516,-3.04588 3.80534,-17.79372 6.031708,-23.69762 9.730295,-25.80287 32.17889,-49.0424 57.5932,-59.62241 8.33264,-3.46888 24.89804,-7.8087 26.88946,-7.04452 1.15678,0.44389 1.34917,2.70048 1.13255,13.2834 l -0.26096,12.74868 -10.36241,3.46479 c -25.13461,8.40406 -42.77842,26.04785 -51.182713,51.18264 l -3.464868,10.36242 -13.198128,0.26012 c -10.228668,0.20159 -13.193563,-0.009 -13.177839,-0.9375 z"
         id="path4684"
         inkscape:connector-curvature="0" />
      <path
         style="fill:#8d8d8d;stroke-width:0.9375"
         d="m 227.79012,570.75632 c -8.96602,-18.33734 -16.8097,-33.7621 -17.4304,-34.27723 -0.81499,-0.67639 -6.36805,3.83328 -19.98668,16.23124 -10.37198,9.44234 -19.4234,17.29475 -20.11427,17.44983 -1.029,0.23098 -1.32326,-6.54951 -1.62743,-37.5 -0.56037,-57.02037 0.19657,-131.06321 1.33987,-131.06321 0.52811,0 13.02759,11.96653 27.77662,26.59229 14.74903,14.62576 27.52301,26.9656 28.38663,27.42188 2.1567,1.13944 65.80443,65.95494 65.28082,66.47855 -0.23108,0.23108 -11.08042,1.2226 -24.10965,2.2034 -13.02925,0.9808 -24.04173,2.1465 -24.47221,2.59045 -0.43048,0.44395 5.9352,15.04898 14.14594,32.45561 8.21075,17.40664 14.92863,31.88425 14.92863,32.17247 0,0.76678 -24.83754,12.58535 -26.449,12.58535 -0.86647,0 -7.33612,-12.20803 -17.66887,-33.34063 z M 64.365154,383.57591 c 1.233011,-8.0718 5.200223,-20.17642 9.610327,-29.32271 10.2785,-21.31698 27.436429,-38.38818 48.922339,-48.67503 9.23685,-4.42234 22.58144,-8.68277 28.71408,-9.16732 l 3.57734,-0.28265 v 12.99458 12.99458 l -7.76502,2.24177 c -26.98855,7.79163 -47.15422,27.95774 -54.940357,54.94154 l -2.240587,7.76503 -13.245351,0.26021 -13.245352,0.26021 z"
         id="path4682"
         inkscape:connector-curvature="0" />
      <path
         style="fill:#7a7a7a;stroke-width:0.9375"
         d="m 243.22429,601.51882 c -0.77495,-1.41796 -8.3423,-16.71093 -16.81632,-33.98437 -8.47403,-17.27344 -15.94145,-31.52038 -16.59428,-31.65988 -0.65282,-0.1395 -9.76758,7.60643 -20.255,17.21319 -10.48744,9.60675 -19.40284,17.1037 -19.812,16.65988 -1.69002,-1.83313 -1.64001,-167.21319 0.0505,-167.21319 2.03907,0 120.86075,116.99552 120.86075,119.00325 0,0.54821 -0.52734,0.99432 -1.17187,0.99136 -3.02222,-0.0139 -43.61006,2.9902 -45.46875,3.36536 -1.16016,0.23416 -2.10938,0.80338 -2.10938,1.26493 0,0.46155 6.59039,14.78112 14.64532,31.82127 8.05492,17.04015 14.41906,31.57171 14.14251,32.29237 -0.46788,1.2193 -23.26424,12.82396 -25.19156,12.82396 -0.47903,0 -1.50502,-1.16016 -2.27997,-2.57813 z M 63.789561,386.85778 c 0.01864,-2.07082 3.925104,-16.61833 6.111995,-22.76083 9.119312,-25.61416 31.754224,-49.75236 56.194874,-59.92703 9.31998,-3.87991 23.22984,-7.77601 26.44619,-7.40748 l 2.64662,0.30326 0.26136,11.81594 c 0.19344,8.74527 -0.0502,12.05498 -0.9375,12.73578 -0.65937,0.50591 -4.02787,1.66414 -7.48555,2.57383 -24.4495,6.43249 -46.09666,27.33417 -53.675654,51.82717 -1.401472,4.52913 -2.872274,8.86759 -3.268451,9.64103 -0.576516,1.12551 -3.273713,1.45832 -13.510386,1.66708 -7.034536,0.14346 -12.78711,-0.0675 -12.783498,-0.46875 z"
         id="path4680"
         inkscape:connector-curvature="0" />
      <path
         style="fill:#6e6e6e;stroke-width:0.9375"
         d="m 227.92174,569.8782 c -11.25574,-22.92163 -17.28006,-34.21875 -18.24756,-34.21875 -0.79439,0 -9.97491,7.7981 -20.40117,17.3291 -10.42625,9.53101 -19.13923,17.14668 -19.36219,16.92373 -0.63081,-0.63081 -0.39039,-166.55276 0.24224,-167.18541 0.61139,-0.61137 35.56759,33.54985 87.39038,85.40288 18.13855,18.14914 32.69324,33.25325 32.34375,33.56468 -0.3495,0.31143 -10.968,1.29884 -23.59669,2.19426 -12.62868,0.89541 -23.28102,1.82566 -23.67187,2.06722 -0.39085,0.24156 -0.71064,0.9661 -0.71064,1.61008 0,0.64398 6.53907,14.99645 14.53125,31.89436 7.99219,16.89792 14.53125,31.12916 14.53125,31.62499 0,0.70809 -24.48695,13.01161 -25.89621,13.01161 -0.19212,0 -7.91077,-15.39844 -17.15254,-34.21875 z M 64.337617,384.72195 c 5.006595,-24.67458 15.879369,-44.91462 32.644121,-60.76814 13.446772,-12.71589 28.050342,-20.64837 46.873092,-25.46088 11.75476,-3.0054 10.86683,-3.86615 10.85832,10.52589 l -0.007,12.42188 -9.71732,3.0937 c -12.17111,3.87491 -23.05625,10.44984 -32.00395,19.33128 -10.42696,10.34973 -17.31745,21.89341 -20.999507,35.18055 -1.048641,3.78414 -2.022832,6.99648 -2.16487,7.13852 -0.142038,0.14204 -6.040724,0.39836 -13.108193,0.5696 l -12.849942,0.31135 z"
         id="path4678"
         inkscape:connector-curvature="0" />
      <path
         style="fill:#565656;stroke-width:0.9375"
         d="m 227.81003,568.86832 c -11.9378,-24.36421 -17.2001,-34.20233 -18.17789,-33.98438 -0.75689,0.16872 -9.8589,8.0531 -20.2267,17.52085 -10.36778,9.46775 -19.07839,16.98622 -19.35691,16.7077 -0.64643,-0.64644 -0.59806,-164.74553 0.0488,-165.39235 0.26552,-0.26551 12.80681,11.48799 27.86952,26.1189 40.73785,39.57002 92.05676,90.82983 91.49598,91.39061 -0.27051,0.27051 -10.91848,1.27161 -23.66216,2.22466 -12.74367,0.95305 -23.58735,2.14985 -24.09706,2.65956 -0.61067,0.61067 4.0642,11.51485 13.70665,31.97087 8.04838,17.07426 14.73648,31.56428 14.86246,32.20003 0.22202,1.12038 -21.94361,12.76737 -24.43469,12.83928 -0.69535,0.0201 -8.50043,-14.8107 -18.02796,-34.25573 z M 64.396624,384.2532 c 0.2617,-1.54688 0.825757,-3.65625 1.253458,-4.6875 0.427702,-1.03125 1.894258,-5.60025 3.259014,-10.15334 8.223862,-27.43639 28.505613,-50.80991 55.023144,-63.41091 8.02985,-3.81574 21.26363,-8.02625 27.05486,-8.60788 l 3.26464,-0.32787 v 12.09552 12.09552 l -7.96875,2.50936 c -26.867,8.46044 -46.593641,28.19356 -54.408519,54.42639 -1.14664,3.84902 -2.346458,7.28384 -2.666263,7.63294 -0.319806,0.3491 -6.140301,0.77098 -12.934435,0.9375 l -12.352969,0.30277 z"
         id="path4676"
         inkscape:connector-curvature="0" />
      <path
         style="fill:#4a4a4a;stroke-width:0.9375"
         d="m 228.39823,568.94205 c -13.37948,-27.2806 -17.14766,-34.2201 -18.58168,-34.2201 -1.02053,0 -9.69317,7.1997 -20.04501,16.64062 -10.03542,9.15235 -18.6523,16.78125 -19.14863,16.95313 -0.57373,0.19868 -0.90242,-29.59384 -0.90242,-81.79688 0,-45.16015 0.31641,-82.10889 0.70313,-82.1083 1.65395,0.003 119.13875,115.78205 118.31909,116.60171 -0.24501,0.24501 -10.14477,1.13315 -21.99947,1.97364 -25.23801,1.78935 -25.77275,1.87342 -25.77275,4.05215 0,0.91045 6.53907,15.47343 14.53125,32.36219 7.99219,16.88876 14.53125,31.04187 14.53125,31.45136 0,0.54648 -18.01109,9.50475 -24.27715,12.07485 -0.3161,0.12966 -8.12702,-15.16331 -17.35761,-33.98437 z M 64.151441,386.05152 c 0.312979,-0.8156 0.602358,-2.60857 0.643065,-3.98437 0.04071,-1.37579 0.305714,-1.91737 0.588903,-1.20349 0.28319,0.71388 1.535289,-2.64117 2.782443,-7.45566 8.673339,-33.48238 34.886638,-61.06009 68.471008,-72.03495 4.60427,-1.5046 10.35868,-3.03365 12.7876,-3.39789 l 4.41621,-0.66225 -0.26322,11.93557 -0.26321,11.93557 -7.03125,2.10386 c -9.81814,2.93772 -13.41872,4.63129 -22.16786,10.42687 -16.27272,10.77933 -31.123916,31.94634 -33.694912,48.02447 l -0.626865,3.9202 h -12.06768 c -7.42012,0 -12.06768,0.36105 -12.06768,0.9375 0,0.51562 -0.467011,0.9375 -1.037802,0.9375 -0.570791,0 -0.781729,-0.66731 -0.46875,-1.48293 z"
         id="path4674"
         inkscape:connector-curvature="0" />
      <path
         style="fill:#484848;stroke-width:0.9375"
         d="m 228.23872,568.23757 c -12.33332,-24.9496 -17.22699,-33.98437 -18.40754,-33.98437 -0.88444,0 -10.01047,7.6725 -20.28007,17.05001 l -18.67198,17.05001 -0.37818,-36.73751 c -0.208,-20.20564 -0.20554,-57.08365 0.006,-81.95116 l 0.38365,-45.21364 33.86833,33.16878 c 69.95876,68.51377 84.35396,82.9729 83.01306,83.38176 -0.73272,0.22342 -11.21411,1.09079 -23.29199,1.92751 -12.07788,0.83671 -22.49421,1.96483 -23.1474,2.50694 -1.52648,1.26685 -2.09066,-0.12938 12.08623,29.91105 6.69178,14.17969 13.1621,27.99562 14.37848,30.70206 l 2.21163,4.92081 -11.2233,5.62606 c -6.17297,3.09434 -11.79126,5.62607 -12.48526,5.62607 -0.72526,0 -8.4054,-14.45106 -18.06129,-33.98438 z M 64.151441,386.05152 c 0.312979,-0.8156 0.611105,-2.60857 0.662502,-3.98437 l 0.09345,-2.50145 0.7506,2.34375 0.7506,2.34375 0.09345,-2.36259 c 0.329853,-8.33932 8.592232,-28.39547 16.674633,-40.4761 9.222677,-13.78499 25.289444,-27.45283 41.079324,-34.94578 6.71387,-3.18601 18.79779,-7.08096 26.01137,-8.38413 l 3.51562,-0.63511 v 11.72509 11.7251 l -3.98437,0.99802 c -29.24587,7.32561 -52.451769,30.53151 -59.777377,59.77737 l -0.99802,3.98438 H 77.340608 c -7.16341,0 -11.682615,0.36265 -11.682615,0.9375 0,0.51562 -0.467011,0.9375 -1.037802,0.9375 -0.570791,0 -0.781729,-0.66731 -0.46875,-1.48293 z"
         id="path4672"
         inkscape:connector-curvature="0" />
      <path
         style="fill:#3e3e3e;stroke-width:0.9375"
         d="m 228.5774,568.20582 c -12.95592,-26.48035 -17.03034,-34.01849 -18.51339,-34.25191 -1.36338,-0.21458 -6.61178,4.01214 -18.54441,14.93444 -9.15357,8.37856 -17.59208,16.07506 -18.75223,17.10334 l -2.10938,1.8696 v -81.3353 c 0,-49.01722 0.34217,-81.21112 0.86114,-81.02279 1.499,0.54397 116.41003,114.44758 115.93701,114.9206 -0.24847,0.24847 -10.58327,1.21261 -22.96623,2.14253 -12.38295,0.92993 -22.95152,1.96089 -23.48569,2.29103 -0.53417,0.33013 -0.97123,1.16653 -0.97123,1.85866 0,0.69213 6.53907,15.08647 14.53125,31.98744 7.99219,16.90096 14.51828,31.18088 14.50243,31.73313 -0.0244,0.84904 -22.03568,11.91814 -23.40868,11.77181 -0.25781,-0.0275 -7.94408,-15.32864 -17.08059,-34.00258 z M 64.151441,386.05152 c 0.312979,-0.8156 0.618966,-2.60857 0.679972,-3.98437 0.110377,-2.48919 0.114428,-2.48767 0.82658,0.31105 0.504004,1.9807 0.748464,2.24087 0.82658,0.87969 0.06101,-1.06305 0.985295,-5.2818 2.053976,-9.375 9.832788,-37.66103 42.743681,-68.33164 80.791321,-75.29175 l 4.45312,-0.81462 v 11.49338 11.49338 l -3.51562,0.65315 c -5.53769,1.02883 -16.59036,5.59482 -23.46935,9.69546 -17.14469,10.22014 -31.716494,29.54604 -36.357659,48.21943 l -1.572818,6.32813 H 77.262768 c -7.111517,0 -11.604775,0.36299 -11.604775,0.9375 0,0.51562 -0.467011,0.9375 -1.037802,0.9375 -0.570791,0 -0.781729,-0.66731 -0.46875,-1.48293 z"
         id="path4670"
         inkscape:connector-curvature="0" />
    </g>
  </g>
</svg>
