<?xml version="1.0" encoding="utf-8"?>
<!-- Generator: Adobe Illustrator 16.0.0, SVG Export Plug-In . SVG Version: 6.00 Build 0)  -->
<!DOCTYPE svg PUBLIC "-//W3C//DTD SVG 1.1//EN" "http://www.w3.org/Graphics/SVG/1.1/DTD/svg11.dtd">
<svg version="1.1" id="Layer_1" xmlns="http://www.w3.org/2000/svg" xmlns:xlink="http://www.w3.org/1999/xlink" x="0px" y="0px"
	 width="48px" height="48px" viewBox="0 0 48 48" enable-background="new 0 0 48 48" xml:space="preserve">
<path fill-rule="evenodd" clip-rule="evenodd" fill="#333333" d="M7.254,19.292c0,1.914-0.022,3.63,0.022,5.345
	c0.007,0.273,0.257,0.6,0.484,0.801c0.873,0.773,0.975,1.641,0.583,2.711c-0.188,0.514-0.21,1.164-0.09,1.703
	c0.637,2.875,1.085,5.766,1.064,8.717c-0.01,1.539-0.514,2.242-2.008,2.455c-0.775,0.107-1.621,0.092-2.375-0.102
	c-1.475-0.379-1.698-1.045-1.24-2.518c0.75-2.414,1.46-4.842,2.104-7.285c0.253-0.965,0.26-1.896-0.623-2.748
	c-0.767-0.742-0.777-1.766,0.005-2.516c0.764-0.73,0.717-1.514,0.723-2.366c0.011-1.53,0.003-3.061,0.003-4.696
	c-1.29-0.435-2.538-0.866-3.794-1.271c-0.583-0.189-1.353-0.369-1.184-1.076c0.104-0.438,0.778-0.874,1.288-1.058
	c1.691-0.608,3.422-1.11,5.142-1.64c4.841-1.491,9.691-2.954,14.521-4.478c1.46-0.46,2.843-0.463,4.305-0.002
	c6.484,2.042,12.984,4.034,19.478,6.044c0.255,0.079,0.566,0.103,0.741,0.269c0.311,0.295,0.678,0.656,0.739,1.036
	c0.035,0.213-0.448,0.643-0.775,0.761c-1.315,0.477-2.657,0.881-3.994,1.295c-5.286,1.634-10.59,3.214-15.852,4.92
	c-1.74,0.564-3.336,0.54-5.059-0.023c-4.118-1.347-8.273-2.578-12.417-3.847C8.55,19.572,8.038,19.478,7.254,19.292z"/>
<path fill-rule="evenodd" clip-rule="evenodd" fill="#333333" d="M11.969,21.806c1.117,0.31,2.002,0.534,2.876,0.803
	c2.23,0.684,4.478,1.327,6.676,2.104c1.722,0.611,3.354,0.574,5.076-0.002c3.03-1.012,6.1-1.908,9.309-2.901
	c0.094,0.535,0.228,0.956,0.233,1.38c0.024,1.671,0.038,3.341,0.001,5.013c-0.043,2.088-0.963,3.242-2.967,3.67
	c-1.367,0.293-2.752,0.602-4.141,0.674c-4.737,0.244-9.481,0.377-14.162-0.662c-1.657-0.369-2.792-1.387-2.87-2.912
	C11.881,26.658,11.969,24.331,11.969,21.806z"/>
</svg>
