<?xml version="1.0" encoding="utf-8"?>
<!-- Generator: Adobe Illustrator 24.0.2, SVG Export Plug-In . SVG Version: 6.00 Build 0)  -->
<svg version="1.1" id="Layer_1" xmlns="http://www.w3.org/2000/svg" xmlns:xlink="http://www.w3.org/1999/xlink" x="0px" y="0px"
	 viewBox="0 0 48 48" style="enable-background:new 0 0 48 48;" xml:space="preserve">
<style type="text/css">
	.st0{fill:#575757;}
	.st1{fill:#666666;}
	.st2{fill:#FFFFFF;}
	.st3{fill:#FFFFFF;stroke:#FFFFFF;stroke-width:3;stroke-linecap:round;stroke-linejoin:round;stroke-miterlimit:10;}
</style>
<g>
	<path class="st0" d="M6,10.1V42h31.9V10.1H6z M36.2,24.3L36.2,24.3v0.9l0,0v7.1l0,0v0.9l0,0v7.1l0,0h-8.9h-0.9h-8.9h-0.9H7.8l0,0
		V17.2l0,0h8.9h0.9h8.9h0.9h8.9l0,0V24.3z"/>
	<path class="st1" d="M27.3,17.2h-0.9v7.1h-8.9v-7.1h-0.9v7.1H7.8v-7.1l0,0v23.1l0,0v-7.1h8.9v7.1h0.9v-7.1h8.9v7.1h0.9v-7.1h8.9
		v-0.9h-8.9v-7.1h8.9v-0.9h-8.9V17.2z M16.6,32.2H7.8v-7.1h8.9V32.2z M26.4,32.2h-8.9v-7.1h8.9V32.2z"/>
	<rect x="7.8" y="33.1" class="st2" width="8.9" height="7.1"/>
	<rect x="7.8" y="25.1" class="st2" width="8.9" height="7.1"/>
	<rect x="7.8" y="17.2" class="st2" width="8.9" height="7.1"/>
	<rect x="17.5" y="33.1" class="st2" width="8.9" height="7.1"/>
	<rect x="17.5" y="25.1" class="st2" width="8.9" height="7.1"/>
	<rect x="17.5" y="17.2" class="st2" width="8.9" height="7.1"/>
	<rect x="36.2" y="33.1" class="st2" width="0" height="7.1"/>
	<rect x="27.3" y="33.1" class="st2" width="8.9" height="7.1"/>
	<rect x="36.2" y="25.1" class="st2" width="0" height="7.1"/>
	<rect x="27.3" y="25.1" class="st2" width="8.9" height="7.1"/>
	<rect x="36.2" y="17.2" class="st2" width="0" height="7.1"/>
	<rect x="27.3" y="17.2" class="st2" width="8.9" height="7.1"/>
</g>
<g>
	<polygon class="st3" points="21.6,28.7 22.5,20.8 34.7,2.3 40.6,6.1 28.5,24.7 	"/>
	<g>
		<g>
			<path d="M23.9,18.8c0.1,0.4,0.3,0.8,0.5,1.1c0.4,0.7,1,1.4,1.8,1.9c0.8,0.5,1.6,0.8,2.4,0.9c0.4,0,0.8,0.1,1.2,0l7.9-12.1
				c-1.2-0.1-2.4-0.5-3.5-1.2c-1.1-0.7-1.9-1.7-2.5-2.7L23.9,18.8z"/>
		</g>
	</g>
	<g>
		<path d="M35.4,7.7c1.2,0.8,2.5,1,3.7,0.9l1.6-2.4l-5.9-3.9l-1.6,2.4C33.4,5.8,34.2,6.9,35.4,7.7z"/>
	</g>
	<g>
		<path d="M22.5,20.8l-0.9,7.9l6.9-4c-1-0.1-2.7-0.3-3.6-1C23.9,23.1,23.1,21.7,22.5,20.8z"/>
	</g>
</g>
</svg>
