<?xml version="1.0" encoding="utf-8"?>
<!-- Generator: Adobe Illustrator 16.0.0, SVG Export Plug-In . SVG Version: 6.00 Build 0)  -->
<!DOCTYPE svg PUBLIC "-//W3C//DTD SVG 1.1//EN" "http://www.w3.org/Graphics/SVG/1.1/DTD/svg11.dtd">
<svg version="1.1" id="Layer_1" xmlns="http://www.w3.org/2000/svg" xmlns:xlink="http://www.w3.org/1999/xlink" x="0px" y="0px"
	 width="48px" height="48px" viewBox="0 0 48 48" enable-background="new 0 0 48 48" xml:space="preserve">
<g id="zXDtGm_1_">
</g>
<g id="Xawsld_1_">
</g>
<circle stroke="#000000" stroke-miterlimit="10" cx="44.559" cy="13.669" r="2.5"/>
<circle stroke="#000000" stroke-miterlimit="10" cx="5.124" cy="25.791" r="2.5"/>
<circle stroke="#000000" stroke-miterlimit="10" cx="30.159" cy="19.295" r="2.5"/>
<circle stroke="#000000" stroke-miterlimit="10" cx="15.925" cy="37.014" r="2.5"/>
<circle stroke="#000000" stroke-miterlimit="10" cx="18.476" cy="26.351" r="2.5"/>
<polygon points="24.583,15.135 22.48,15.126 22.489,13.023 20.396,13.014 20.387,15.117 18.283,15.109 18.274,17.202 20.378,17.211 
	20.369,19.315 22.463,19.323 22.472,17.22 24.574,17.229 "/>
<circle stroke="#000000" stroke-miterlimit="10" cx="32.381" cy="7.619" r="2.5"/>
<circle stroke="#000000" stroke-miterlimit="10" cx="5.532" cy="36.49" r="2.5"/>
<polygon points="45.213,27.816 43.109,27.809 43.119,25.705 41.025,25.695 41.016,27.8 38.912,27.791 38.904,29.885 41.007,29.895 
	40.998,31.997 43.092,32.006 43.102,29.902 45.203,29.911 "/>
<path fill="none" stroke="#000000" stroke-width="2" stroke-miterlimit="10" d="M15.25,16.141c0,0-4.125,0.611-4.083,15.652"/>
<path fill="none" stroke="#000000" stroke-width="2" stroke-miterlimit="10" d="M36.376,14c0,0,5.574,4.868,5.683,9.851"/>
<path stroke="#000000" stroke-miterlimit="10" d="M8.5,28.852"/>
<polygon stroke="#000000" stroke-miterlimit="10" points="13.121,30.187 11.218,33.427 9.364,30.159 "/>
<polygon stroke="#000000" stroke-miterlimit="10" points="38.121,13.201 35.172,15.528 34.631,11.81 "/>
</svg>
