<?xml version="1.0" encoding="utf-8"?>
<!-- Generator: Adobe Illustrator 22.0.1, SVG Export Plug-In . SVG Version: 6.00 Build 0)  -->
<svg version="1.1" id="Layer_1" xmlns="http://www.w3.org/2000/svg" xmlns:xlink="http://www.w3.org/1999/xlink" x="0px" y="0px"
	 viewBox="0 0 48 48" style="enable-background:new 0 0 48 48;" xml:space="preserve">
<style type="text/css">
	.st0{fill:#FFFFFF;}
	.st1{fill:#333333;}
	.st2{fill:none;stroke:#333333;stroke-width:2;stroke-miterlimit:10;}
	.st3{fill:#B2B2B2;}
	.st4{fill:#F0F0F0;}
	.st5{fill:#666666;}
	.st6{fill:none;stroke:#333333;stroke-miterlimit:10;}
	.st7{fill:none;stroke:#333333;stroke-width:3;stroke-miterlimit:10;}
	.st8{fill:none;stroke:#333333;stroke-width:2;stroke-linecap:round;stroke-miterlimit:10;}
	.st9{fill:none;stroke:#C6C6C6;stroke-width:3;stroke-miterlimit:10;}
</style>
<g>
	<polygon class="st1" points="23.3,15 21.2,15 21.2,12.9 19.1,12.9 19.1,15 17,15 17,17.1 19.1,17.1 19.1,19.2 21.2,19.2 21.2,17.1 
		23.3,17.1 	"/>
	<g>
		<path class="st5" d="M41.2,19c0.9-1.4,0.4-3.3-1-4.1c-1.4-0.9-3.3-0.4-4.1,1c-0.9,1.4-0.4,3.3,1,4.1C38.5,20.9,40.3,20.4,41.2,19z
			"/>
	</g>
	<g>
		<path class="st1" d="M27.4,21.6c0-1.7-1.3-3-3-3c-1.7,0-3,1.3-3,3c0,1.7,1.3,3,3,3C26,24.6,27.3,23.2,27.4,21.6z"/>
	</g>
	<g>
		<path class="st3" d="M20,22.4c0-1.7-1.3-3-3-3c-1.7,0-3,1.3-3,3c0,1.7,1.3,3,3,3C18.6,25.4,20,24.1,20,22.4z"/>
	</g>
	<g>
		<path class="st3" d="M18.4,12.2c0-1.7-1.3-3-3-3c-1.7,0-3,1.3-3,3c0,1.7,1.3,3,3,3C17,15.2,18.3,13.9,18.4,12.2z"/>
	</g>
	<g>
		<path class="st5" d="M32,16.7c0.9-1.4,0.4-3.3-1-4.1c-1.4-0.9-3.3-0.4-4.1,1c-0.9,1.4-0.4,3.3,1,4.1C29.3,18.6,31.2,18.2,32,16.7z
			"/>
	</g>
	<g>
		<path class="st1" d="M34.8,33.2c0-1.7-1.3-3-3-3c-1.7,0-3,1.3-3,3c0,1.7,1.3,3,3,3C33.4,36.2,34.8,34.8,34.8,33.2z"/>
	</g>
	<g>
		<path class="st1" d="M24.4,32.3c0-1.7-1.3-3-3-3c-1.7,0-3,1.3-3,3c0,1.7,1.3,3,3,3C23,35.3,24.3,34,24.4,32.3z"/>
	</g>
	<g>
		<path class="st3" d="M27.4,10.9c0-1.7-1.3-3-3-3c-1.7,0-3,1.3-3,3c0,1.7,1.3,3,3,3C26,13.9,27.3,12.6,27.4,10.9z"/>
	</g>
	<g>
		<path class="st5" d="M39.4,28.4c0.9-1.4,0.4-3.3-1-4.1c-1.4-0.9-3.3-0.4-4.1,1c-0.9,1.4-0.4,3.3,1,4.1
			C36.7,30.2,38.5,29.8,39.4,28.4z"/>
	</g>
	<polygon class="st1" points="30.5,26.6 28.4,26.6 28.4,24.5 26.3,24.5 26.3,26.6 24.2,26.6 24.2,28.7 26.3,28.7 26.3,30.8 
		28.4,30.8 28.4,28.7 30.5,28.7 	"/>
	<polygon class="st1" points="35.8,20.3 33.7,20.3 33.7,18.2 31.6,18.2 31.6,20.3 29.5,20.3 29.5,22.4 31.6,22.4 31.6,24.5 
		33.7,24.5 33.7,22.4 35.8,22.4 	"/>
	<g>
		<g>
			<g>
				<line class="st2" x1="15.3" y1="41.7" x2="39.1" y2="41.8"/>
				<g>
					<polygon class="st1" points="9.6,41.7 17.6,45 15.7,41.7 17.6,38.5 					"/>
				</g>
				<g>
					<polygon class="st1" points="44.7,41.8 36.7,45.1 38.6,41.8 36.8,38.6 					"/>
				</g>
			</g>
		</g>
		<g>
			<g>
				<line class="st2" x1="6.5" y1="32.4" x2="6.6" y2="8.6"/>
				<g>
					<polygon class="st1" points="6.5,38 9.8,30.1 6.5,31.9 3.3,30 					"/>
				</g>
				<g>
					<polygon class="st1" points="6.6,2.9 9.9,10.9 6.6,9 3.4,10.9 					"/>
				</g>
			</g>
		</g>
	</g>
</g>
</svg>
