<?xml version="1.0" encoding="utf-8"?>
<!-- Generator: Adobe Illustrator 22.0.1, SVG Export Plug-In . SVG Version: 6.00 Build 0)  -->
<svg version="1.1" id="Layer_1" xmlns="http://www.w3.org/2000/svg" xmlns:xlink="http://www.w3.org/1999/xlink" x="0px" y="0px"
	 viewBox="0 0 48 48" style="enable-background:new 0 0 48 48;" xml:space="preserve">
<style type="text/css">
	.st0{fill:#FFFFFF;}
	.st1{fill:#333333;}
	.st2{fill:none;stroke:#333333;stroke-width:2;stroke-miterlimit:10;}
	.st3{fill:#B2B2B2;}
	.st4{fill:#F0F0F0;}
	.st5{fill:#666666;}
	.st6{fill:none;stroke:#333333;stroke-miterlimit:10;}
	.st7{fill:none;stroke:#333333;stroke-width:3;stroke-miterlimit:10;}
	.st8{fill:none;stroke:#333333;stroke-width:2;stroke-linecap:round;stroke-miterlimit:10;}
	.st9{fill:none;stroke:#C6C6C6;stroke-width:3;stroke-miterlimit:10;}
</style>
<g>
	<path class="st8" d="M3.3,34.2c0,0,0.2-9.3,7.1-13.4s13.7,2.9,13.7,2.9s6.8,7,13.7,2.9s7.1-13.4,7.1-13.4"/>
	<g>
		<path class="st5" d="M16.3,27.1c0.9-1.4,0.4-3.3-1-4.1c-1.4-0.9-3.3-0.4-4.1,1c-0.9,1.4-0.4,3.3,1,4.1
			C13.6,29,15.5,28.5,16.3,27.1z"/>
	</g>
	<g>
		<path class="st3" d="M22.3,14.3c0.1,1.7-1.2,3.1-2.8,3.2c-1.7,0.1-3.1-1.2-3.2-2.8c-0.1-1.6,1.2-3.1,2.8-3.2
			C20.7,11.3,22.2,12.6,22.3,14.3z"/>
	</g>
	<g>
		<path class="st3" d="M42.5,15.2c0.1,1.7-1.2,3.1-2.8,3.2c-1.7,0.1-3.1-1.2-3.2-2.8c-0.1-1.6,1.2-3.1,2.8-3.2
			C41,12.2,42.4,13.5,42.5,15.2z"/>
	</g>
	<g>
		<path class="st3" d="M37.7,21.3c0.1,1.7-1.2,3.1-2.8,3.2c-1.7,0.1-3.1-1.2-3.2-2.8c-0.1-1.6,1.2-3.1,2.8-3.2
			C36.2,18.4,37.6,19.6,37.7,21.3z"/>
	</g>
	<g>
		<path class="st3" d="M30.7,17.3c0.1,1.7-1.2,3.1-2.8,3.2c-1.7,0.1-3.1-1.2-3.2-2.8c-0.1-1.6,1.2-3.1,2.8-3.2
			C29.2,14.4,30.6,15.7,30.7,17.3z"/>
	</g>
	<g>
		<path class="st5" d="M31.3,34.1c0.9-1.4,0.4-3.3-1-4.1c-1.4-0.9-3.3-0.4-4.1,1c-0.9,1.4-0.4,3.3,1,4.1
			C28.6,36,30.5,35.5,31.3,34.1z"/>
	</g>
	<g>
		<path class="st5" d="M20.3,37.1c0.9-1.4,0.4-3.3-1-4.1c-1.4-0.9-3.3-0.4-4.1,1c-0.9,1.4-0.4,3.3,1,4.1
			C17.6,39,19.5,38.5,20.3,37.1z"/>
	</g>
	<g>
		<path class="st5" d="M12.3,33.1c0.9-1.4,0.4-3.3-1-4.1c-1.4-0.9-3.3-0.4-4.1,1c-0.9,1.4-0.4,3.3,1,4.1C9.6,35,11.5,34.5,12.3,33.1
			z"/>
	</g>
	<g>
		<path class="st5" d="M23.3,30.1c0.9-1.4,0.4-3.3-1-4.1c-1.4-0.9-3.3-0.4-4.1,1c-0.9,1.4-0.4,3.3,1,4.1
			C20.6,32,22.5,31.5,23.3,30.1z"/>
	</g>
	<g>
		<path class="st5" d="M10.3,41.1c0.9-1.4,0.4-3.3-1-4.1c-1.4-0.9-3.3-0.4-4.1,1c-0.9,1.4-0.4,3.3,1,4.1C7.6,43,9.5,42.5,10.3,41.1z
			"/>
	</g>
	<g>
		<path class="st5" d="M46.3,30.1c0.9-1.4,0.4-3.3-1-4.1c-1.4-0.9-3.3-0.4-4.1,1c-0.9,1.4-0.4,3.3,1,4.1
			C43.6,32,45.5,31.5,46.3,30.1z"/>
	</g>
	<g>
		<path class="st5" d="M39.3,35.1c0.9-1.4,0.4-3.3-1-4.1c-1.4-0.9-3.3-0.4-4.1,1c-0.9,1.4-0.4,3.3,1,4.1
			C36.6,37,38.5,36.5,39.3,35.1z"/>
	</g>
	<g>
		<path class="st3" d="M27.3,8.3c0.1,1.7-1.2,3.1-2.8,3.2c-1.7,0.1-3.1-1.2-3.2-2.8c-0.1-1.6,1.2-3.1,2.8-3.2
			C25.7,5.3,27.2,6.6,27.3,8.3z"/>
	</g>
	<g>
		<path class="st3" d="M7.3,18.3c0.1,1.7-1.2,3.1-2.8,3.2c-1.7,0.1-3.1-1.2-3.2-2.8c-0.1-1.6,1.2-3.1,2.8-3.2
			C5.7,15.3,7.2,16.6,7.3,18.3z"/>
	</g>
	<g>
		<path class="st3" d="M14.3,14.3c0.1,1.7-1.2,3.1-2.8,3.2c-1.7,0.1-3.1-1.2-3.2-2.8c-0.1-1.6,1.2-3.1,2.8-3.2
			C12.7,11.3,14.2,12.6,14.3,14.3z"/>
	</g>
	<g>
		<path class="st3" d="M35.3,11.3c0.1,1.7-1.2,3.1-2.8,3.2c-1.7,0.1-3.1-1.2-3.2-2.8c-0.1-1.6,1.2-3.1,2.8-3.2
			C33.7,8.3,35.2,9.6,35.3,11.3z"/>
	</g>
</g>
</svg>
