<svg width="48" height="48" xmlns="http://www.w3.org/2000/svg">
 <!-- Created with Method Draw - http://github.com/duopixel/Method-Draw/ -->

 <g>
  <title>background</title>
  <rect x="-1" y="-1" width="50" height="50" id="canvas_background" fill="none"/>
  <g id="canvasGrid" display="none">
   <rect id="svg_1" width="100%" height="100%" x="0" y="0" stroke-width="0" fill="url(#gridpattern)"/>
  </g>
 </g>
 <g>
  <title>Layer 1</title>
  <ellipse fill="#000000" stroke="#000" stroke-width="1.5" cx="94.5" cy="60" id="svg_2" rx="10.5" ry="11"/>
  <ellipse fill="#000000" stroke="#000" stroke-width="1.5" cx="84.5" cy="173" id="svg_3" rx="10.5" ry="11"/>
  <ellipse fill="#000000" stroke="#000" stroke-width="1.5" cx="94.5" cy="60" id="svg_5" rx="10.5" ry="11"/>
  <ellipse fill="#5b5b5b" stroke="#5b5b5b" stroke-width="1.5" cx="23.018338" cy="29.977077" id="svg_14" rx="1.336898" ry="1.336898"/>
  <path stroke-width="2" fill="none" stroke="#000" stroke-opacity="null" d="m3.3583,35.942703c7.29411,-3.61498 10.09624,-9.36899 17.71121,-12.44921c6.88056,-3.13725 11.4082,2.06774 17.00534,-2.99465c3.6007,-2.53119 3.77896,-5.59714 6.63101,-8.55614" id="svg_15"/>
  <ellipse fill="#999999" stroke="#999999" stroke-width="1.5" cx="8.005359" cy="22.349122" id="svg_18" rx="1.336898" ry="1.336898"/>
  <ellipse fill="#999999" stroke="#999999" stroke-width="1.5" cx="31.862483" cy="15.491984" id="svg_4" rx="1.336898" ry="1.336898"/>
  <ellipse fill="#999999" stroke="#999999" stroke-width="1.5" cx="12.005357" cy="10.063418" id="svg_6" rx="1.336898" ry="1.336898"/>
  <ellipse fill="#999999" stroke="#999999" stroke-width="1.5" cx="34.148195" cy="6.920563" id="svg_7" rx="1.336898" ry="1.336898"/>
  <ellipse fill="#999999" stroke="#999999" stroke-width="1.5" cx="22.005348" cy="13.7777" id="svg_8" rx="1.336898" ry="1.336898"/>
  <ellipse fill="#5b5b5b" stroke="#5b5b5b" stroke-width="1.5" cx="14.875487" cy="37.119928" id="svg_9" rx="1.336898" ry="1.336898"/>
  <ellipse fill="#5b5b5b" stroke="#5b5b5b" stroke-width="1.5" cx="34.4469" cy="29.262791" id="svg_10" rx="1.336898" ry="1.336898"/>
  <ellipse fill="#5b5b5b" stroke="#5b5b5b" stroke-width="1.5" cx="36.161184" cy="38.405641" id="svg_11" rx="1.336898" ry="1.336898"/>
  <ellipse fill="#5b5b5b" stroke="#5b5b5b" stroke-width="1.5" cx="24.018337" cy="39.977069" id="svg_12" rx="1.336898" ry="1.336898"/>
 </g>
</svg>