<?xml version="1.0" encoding="utf-8"?>
<!-- Generator: Adobe Illustrator 16.0.0, SVG Export Plug-In . SVG Version: 6.00 Build 0)  -->
<!DOCTYPE svg PUBLIC "-//W3C//DTD SVG 1.1//EN" "http://www.w3.org/Graphics/SVG/1.1/DTD/svg11.dtd">
<svg version="1.1" id="Layer_1" xmlns="http://www.w3.org/2000/svg" xmlns:xlink="http://www.w3.org/1999/xlink" x="0px" y="0px"
	 width="48px" height="48px" viewBox="0 0 48 48" enable-background="new 0 0 48 48" xml:space="preserve">
<path fill="none" d="M32.826,44.996c0.018,0,0.035,0.005,0.053,0.005C32.861,45.001,32.844,44.996,32.826,44.996L32.826,44.996z"/>
<g>
	<path d="M38.057,12.958L26.529,7.22c-0.851-0.427-1.812-0.491-2.31-0.491c-0.572,0-1.113,0.081-1.567,0.237L9.655,11.472
		c-1.375,0.478-2.415,1.936-2.42,3.39L7.204,30.646c-0.001,1.4,0.906,2.873,2.162,3.497l11.528,5.734
		c0.859,0.431,1.822,0.493,2.321,0.493c0.568,0,1.108-0.084,1.559-0.233l13.008-4.516c1.376-0.475,2.416-1.933,2.416-3.394
		l0.023-15.778C40.226,15.074,39.295,13.572,38.057,12.958z M9.53,13.315c0.065-0.06,0.131-0.111,0.203-0.16
		c0.133-0.097,0.273-0.185,0.423-0.237l12.99-4.504c0.306-0.103,0.684-0.155,1.074-0.155c0.584,0,1.196,0.115,1.629,0.332
		l11.529,5.737c0.14,0.072,0.271,0.172,0.396,0.288c0.095,0.081,0.177,0.169,0.261,0.268c0,0.001,0.003,0.001,0.003,0.001
		l-15.191,5.149L9.53,13.315L9.53,13.315z M10.05,32.775c-0.727-0.361-1.315-1.317-1.313-2.126l0.031-15.782
		c0-0.171,0.037-0.343,0.093-0.514c0.047-0.157,0.131-0.301,0.212-0.448l13.438,6.78l-0.107,18.072
		c-0.012-0.003-0.024-0.003-0.035-0.006c-0.288-0.054-0.566-0.131-0.79-0.242L10.05,32.775z M38.668,32.229
		c0,0.807-0.627,1.691-1.389,1.951l-12.999,4.51c-0.305,0.102-0.68,0.155-1.066,0.155c-0.027,0-0.054-0.009-0.081-0.009
		l0.107-18.114l15.207-5.185c0.064,0.137,0.124,0.274,0.16,0.415c0.051,0.17,0.083,0.334,0.083,0.496L38.668,32.229z"/>
	<g>
		<path fill="#FFFFFF" d="M38.035,14.881c-0.081-0.094-0.171-0.184-0.261-0.268c-0.128-0.109-0.257-0.218-0.396-0.288L25.849,8.588
			c-0.433-0.215-1.045-0.33-1.629-0.33c-0.39,0-0.768,0.051-1.074,0.155l-12.99,4.504c-0.149,0.052-0.287,0.144-0.423,0.237
			c-0.068,0.049-0.137,0.1-0.203,0.16l0,0l13.317,6.718L38.035,14.881C38.038,14.883,38.038,14.883,38.035,14.881z M26.757,14.268
			c-0.335,0.89-1.864,1.356-3.408,1.039c-1.543-0.316-2.524-1.296-2.187-2.189c0.337-0.89,1.865-1.356,3.408-1.037
			C26.117,12.398,27.098,13.372,26.757,14.268z"/>
		<path d="M24.57,12.081c-1.542-0.319-3.07,0.146-3.408,1.037c-0.337,0.893,0.642,1.873,2.187,2.189
			c1.543,0.317,3.073-0.149,3.408-1.039C27.098,13.372,26.117,12.398,24.57,12.081z"/>
	</g>
	<g>
		<path fill="#FFFFFF" d="M9.063,13.903C8.98,14.049,8.91,14.2,8.859,14.354c-0.051,0.17-0.093,0.344-0.093,0.514L8.735,30.649
			c-0.001,0.809,0.588,1.765,1.313,2.126l11.526,5.734c0.233,0.117,0.52,0.2,0.821,0.254l0.109-18.078L9.063,13.903z M13.8,30.363
			c-0.113,1.43-1.016,2.194-2.012,1.707c-0.998-0.483-1.714-2.039-1.599-3.476c0.114-1.431,1.018-2.195,2.009-1.702
			C13.2,27.376,13.917,28.93,13.8,30.363z M13.8,20.644c-0.113,1.429-1.016,2.194-2.012,1.708c-0.998-0.487-1.711-2.043-1.599-3.479
			c0.114-1.428,1.018-2.195,2.009-1.704C13.2,17.657,13.917,19.21,13.8,20.644z M17.226,22.448c0.114-1.432,1.017-2.197,2.013-1.706
			c0.998,0.487,1.714,2.043,1.599,3.47c-0.113,1.436-1.014,2.201-2.014,1.712C17.826,25.438,17.113,23.882,17.226,22.448z
			 M20.84,34.164c-0.115,1.428-1.015,2.195-2.016,1.706c-0.995-0.484-1.711-2.04-1.598-3.474c0.114-1.431,1.02-2.191,2.013-1.705
			C20.237,31.178,20.954,32.73,20.84,34.164z"/>
		<path d="M12.199,17.167c-0.991-0.49-1.896,0.278-2.009,1.706c-0.113,1.435,0.601,2.993,1.599,3.478
			c0.996,0.484,1.898-0.281,2.012-1.707C13.917,19.21,13.2,17.657,12.199,17.167z"/>
		<path d="M18.824,25.925c1,0.489,1.901-0.278,2.014-1.712c0.115-1.427-0.602-2.983-1.599-3.47c-0.996-0.49-1.899,0.275-2.013,1.706
			C17.113,23.882,17.826,25.438,18.824,25.925z"/>
		<path d="M19.239,30.691c-0.993-0.486-1.899,0.274-2.013,1.705c-0.113,1.434,0.604,2.989,1.598,3.474
			c1,0.489,1.901-0.278,2.016-1.706C20.954,32.73,20.237,31.178,19.239,30.691z"/>
		<path d="M12.199,26.893c-0.991-0.491-1.896,0.273-2.009,1.702c-0.116,1.437,0.601,2.992,1.599,3.476
			c0.996,0.487,1.898-0.277,2.012-1.707C13.917,28.93,13.2,27.376,12.199,26.893z"/>
	</g>
	<g>
		<path fill="#FFFFFF" d="M38.611,15.954c-0.042-0.139-0.093-0.279-0.155-0.417l-15.215,5.185l-0.106,18.117
			c0.028,0,0.052,0.006,0.081,0.006c0.387,0,0.763-0.051,1.066-0.155l12.998-4.507c0.762-0.263,1.388-1.145,1.388-1.95l0.023-15.785
			C38.691,16.288,38.653,16.119,38.611,15.954z M35.003,18.99c1.105-0.409,2.011,0.342,2.022,1.68
			c0.012,1.341-0.872,2.76-1.978,3.17c-1.102,0.411-2.01-0.344-2.019-1.685C33.017,20.817,33.901,19.396,35.003,18.99z
			 M27.073,21.657c1.106-0.409,2.012,0.34,2.022,1.681c0.012,1.343-0.872,2.762-1.978,3.169c-1.104,0.415-2.007-0.34-2.019-1.685
			C25.087,23.487,25.975,22.063,27.073,21.657z M27.205,36.022c-1.103,0.412-2.008-0.341-2.02-1.685
			c-0.012-1.332,0.872-2.757,1.978-3.166c1.102-0.41,2.007,0.34,2.016,1.682C29.194,34.191,28.31,35.613,27.205,36.022z
			 M31.156,29.93c-1.103,0.412-2.007-0.34-2.021-1.685c-0.011-1.335,0.877-2.757,1.978-3.166c1.106-0.409,2.008,0.341,2.023,1.682
			C33.146,28.099,32.262,29.521,31.156,29.93z M35.194,33.047c-1.103,0.416-2.007-0.34-2.02-1.684
			c-0.012-1.335,0.876-2.76,1.978-3.166c1.106-0.409,2.01,0.341,2.022,1.682C37.187,31.223,36.3,32.635,35.194,33.047z"/>
		<path d="M27.121,26.507c1.103-0.409,1.986-1.826,1.975-3.169c-0.01-1.341-0.916-2.089-2.02-1.681
			c-1.102,0.406-1.989,1.831-1.977,3.166C25.111,26.167,26.016,26.922,27.121,26.507z"/>
		<path d="M31.113,25.079c-1.101,0.409-1.988,1.831-1.978,3.166c0.014,1.345,0.921,2.097,2.021,1.685
			c1.105-0.409,1.99-1.831,1.98-3.169C33.121,25.42,32.22,24.67,31.113,25.079z"/>
		<path d="M35.048,23.84c1.105-0.413,1.989-1.831,1.978-3.172c-0.012-1.338-0.917-2.087-2.022-1.678
			c-1.102,0.406-1.986,1.826-1.974,3.164C33.038,23.496,33.946,24.249,35.048,23.84z"/>
		<path d="M35.152,28.197c-1.102,0.406-1.989,1.831-1.978,3.166c0.013,1.344,0.919,2.1,2.02,1.684
			c1.105-0.412,1.992-1.824,1.98-3.168C37.162,28.538,36.258,27.788,35.152,28.197z"/>
		<path d="M27.163,31.172c-1.105,0.409-1.989,1.834-1.978,3.166c0.012,1.344,0.917,2.097,2.02,1.685
			c1.104-0.409,1.989-1.831,1.974-3.169C29.17,31.512,28.265,30.764,27.163,31.172z"/>
	</g>
</g>
</svg>
