<?xml version="1.0" encoding="utf-8"?>
<!-- Generator: Adobe Illustrator 24.0.2, SVG Export Plug-In . SVG Version: 6.00 Build 0)  -->
<svg version="1.1"
	 id="layer1" xmlns:cc="http://web.resource.org/cc/" xmlns:dc="http://purl.org/dc/elements/1.1/" xmlns:rdf="http://www.w3.org/1999/02/22-rdf-syntax-ns#" xmlns:svg="http://www.w3.org/2000/svg"
	 xmlns="http://www.w3.org/2000/svg" xmlns:xlink="http://www.w3.org/1999/xlink" x="0px" y="0px" viewBox="0 0 400 400"
	 style="enable-background:new 0 0 400 400;" xml:space="preserve">
<style type="text/css">
	.st0{fill:#888888;stroke:#888888;stroke-width:26.6667;stroke-linejoin:round;stroke-miterlimit:21.3333;}
	.st1{fill:none;stroke:#888888;stroke-width:26.6667;stroke-linecap:round;stroke-miterlimit:21.3333;}
	.st2{fill:none;stroke:#FFFFFF;stroke-width:35;stroke-linecap:round;stroke-miterlimit:21.3333;}
</style>
<g id="g1">
	<polygon id="polygon1" class="st0" points="210.1,73.4 118.6,152.6 32,152.6 32,254.4 117.3,254.4 210.1,334.7 	"/>
	<path id="path1" class="st1" d="M256.7,261.5C267,245,273,225.6,273,204.7c0-21.2-6.2-40.9-16.8-57.6"/>
	<path id="path2" class="st1" d="M293.8,109.5c19.7,26.6,31.4,59.5,31.4,95.1c0,35.3-11.5,67.9-30.9,94.4"/>
	<path id="path1_1_" class="st1" d="M329.1,333.9c28.1-35.6,44.9-80.4,44.9-129.2c0-49.2-17-94.3-45.4-130"/>
</g>
<line class="st2" x1="43" y1="43.9" x2="374" y2="349.9"/>
<line class="st1" x1="43" y1="43.9" x2="374" y2="349.9"/>
</svg>
