<?xml version="1.0" encoding="utf-8"?>
<!-- Generator: Adobe Illustrator 22.0.1, SVG Export Plug-In . SVG Version: 6.00 Build 0)  -->
<svg version="1.1" id="Layer_1" xmlns="http://www.w3.org/2000/svg" xmlns:xlink="http://www.w3.org/1999/xlink" x="0px" y="0px"
	 viewBox="0 0 48 48" style="enable-background:new 0 0 48 48;" xml:space="preserve">
<style type="text/css">
	.st0{fill:#FFFFFF;}
	.st1{fill:#333333;}
	.st2{fill:none;stroke:#333333;stroke-width:2;stroke-miterlimit:10;}
	.st3{fill:#B2B2B2;}
	.st4{fill:#F0F0F0;}
	.st5{fill:#666666;}
	.st6{fill:none;stroke:#333333;stroke-miterlimit:10;}
	.st7{fill:none;stroke:#333333;stroke-width:3;stroke-miterlimit:10;}
	.st8{fill:none;stroke:#333333;stroke-width:2;stroke-linecap:round;stroke-miterlimit:10;}
	.st9{fill:none;stroke:#C6C6C6;stroke-width:3;stroke-miterlimit:10;}
</style>
<g>
	<g>
		<path class="st5" d="M26.2,32.1c0.9-1.4,0.4-3.3-1-4.1c-1.4-0.9-3.3-0.4-4.1,1c-0.9,1.4-0.4,3.3,1,4.1
			C23.5,33.9,25.3,33.5,26.2,32.1z"/>
	</g>
	<g>
		<path class="st5" d="M41.2,18.1c0.9-1.4,0.4-3.3-1-4.1c-1.4-0.9-3.3-0.4-4.1,1c-0.9,1.4-0.4,3.3,1,4.1
			C38.5,19.9,40.3,19.5,41.2,18.1z"/>
	</g>
	<g>
		<path class="st5" d="M36.2,24.1c0.9-1.4,0.4-3.3-1-4.1c-1.4-0.9-3.3-0.4-4.1,1c-0.9,1.4-0.4,3.3,1,4.1
			C33.5,25.9,35.3,25.5,36.2,24.1z"/>
	</g>
	<g>
		<path class="st5" d="M44.2,32.1c0.9-1.4,0.4-3.3-1-4.1c-1.4-0.9-3.3-0.4-4.1,1c-0.9,1.4-0.4,3.3,1,4.1
			C41.5,33.9,43.3,33.5,44.2,32.1z"/>
	</g>
	<g>
		<path class="st5" d="M35.2,35.1c0.9-1.4,0.4-3.3-1-4.1c-1.4-0.9-3.3-0.4-4.1,1c-0.9,1.4-0.4,3.3,1,4.1
			C32.5,36.9,34.3,36.5,35.2,35.1z"/>
	</g>
	<g>
		<path class="st8" d="M3.2,34.5c0,0,0.2-9.3,7.1-13.4S24,24.1,24,24.1s6.8,7,13.7,2.9s7.1-13.4,7.1-13.4"/>
		<g>
			<path class="st5" d="M19.1,27.2c0.9-1.4,0.6-3.2-0.8-4.2c-1.4-0.9-3.2-0.6-4.2,0.8c-0.9,1.4-0.6,3.2,0.8,4.2
				C16.3,28.9,18.2,28.6,19.1,27.2z"/>
		</g>
		<g>
			<path class="st5" d="M12.2,32.1c0.9-1.4,0.4-3.3-1-4.1c-1.4-0.9-3.3-0.4-4.1,1c-0.9,1.4-0.4,3.3,1,4.1
				C9.5,33.9,11.3,33.5,12.2,32.1z"/>
		</g>
		<g>
			<path class="st5" d="M9.2,19.1c0.9-1.4,0.4-3.3-1-4.1c-1.4-0.9-3.3-0.4-4.1,1c-0.9,1.4-0.4,3.3,1,4.1C6.5,20.9,8.3,20.5,9.2,19.1
				z"/>
		</g>
		<g>
			<path class="st5" d="M20.2,16.1c0.9-1.4,0.4-3.3-1-4.1c-1.4-0.9-3.3-0.4-4.1,1c-0.9,1.4-0.4,3.3,1,4.1
				C17.5,17.9,19.3,17.5,20.2,16.1z"/>
		</g>
	</g>
	<g>
		<path class="st5" d="M29.2,21.1c0.9-1.4,0.4-3.3-1-4.1c-1.4-0.9-3.3-0.4-4.1,1c-0.9,1.4-0.4,3.3,1,4.1
			C26.5,22.9,28.3,22.5,29.2,21.1z"/>
	</g>
</g>
</svg>
